<?xml version="1.0" standalone="no"?>
<!DOCTYPE svg PUBLIC "-//W3C//DTD SVG 20010904//EN"
 "http://www.w3.org/TR/2001/REC-SVG-20010904/DTD/svg10.dtd">
<svg version="1.0" xmlns="http://www.w3.org/2000/svg"
 width="250.000000pt" height="250.000000pt" viewBox="0 0 250.000000 250.000000"
 preserveAspectRatio="xMidYMid meet">
<metadata>
Created by potrace 1.14, written by Peter Selinger 2001-2017
</metadata>
<g transform="translate(0.000000,250.000000) scale(0.100000,-0.100000)"
fill="#000000" stroke="none">
<path d="M2130 2491 c0 -6 7 -11 15 -11 17 0 20 -25 5 -35 -16 -10 13 -45 37
-45 12 0 25 -5 29 -11 3 -6 18 -9 32 -6 26 5 72 -10 72 -24 0 -4 -18 -5 -40
-2 -29 4 -40 2 -40 -8 0 -10 -3 -10 -12 -1 -7 7 -19 12 -27 12 -10 0 -12 -3
-5 -10 11 -11 41 -17 97 -19 15 0 27 -5 27 -11 0 -5 -7 -7 -14 -4 -9 3 -28 -7
-45 -25 -25 -25 -31 -28 -41 -16 -15 18 -51 20 -45 3 3 -7 23 -23 45 -36 40
-23 43 -29 53 -123 3 -20 7 -42 11 -47 3 -6 2 -13 -4 -17 -6 -3 -14 4 -19 17
-6 13 -10 17 -10 10 -1 -20 -21 -3 -21 18 0 11 -11 22 -30 29 -16 5 -30 14
-30 18 0 5 -8 10 -17 11 -10 1 -47 5 -83 10 -54 7 -67 6 -77 -7 -6 -9 -9 -19
-7 -23 3 -5 1 -8 -5 -8 -5 0 -11 4 -13 8 -1 5 -28 16 -58 25 l-55 17 57 -4
c53 -4 59 -2 98 31 36 31 40 37 25 46 -11 6 -21 5 -28 -3 -9 -8 -7 -9 8 -4 18
7 18 6 6 -9 -10 -12 -18 -14 -31 -7 -24 13 -50 2 -50 -20 0 -14 -8 -18 -34
-18 -18 0 -43 -5 -54 -11 -11 -6 -30 -11 -42 -11 -12 0 -28 -6 -36 -14 -43
-44 23 -135 132 -182 61 -26 68 -32 95 -85 15 -32 31 -76 35 -98 7 -46 19 -50
58 -20 14 11 26 17 26 12 -1 -14 -27 -43 -39 -43 -7 0 -9 -5 -5 -12 5 -7 2 -9
-9 -5 -11 4 -26 -13 -58 -66 -23 -40 -46 -74 -51 -75 -4 -2 -2 -16 6 -30 7
-15 19 -40 27 -57 7 -16 32 -59 55 -95 29 -44 46 -84 53 -124 11 -60 5 -136
-10 -136 -5 0 -9 -7 -9 -15 0 -21 -48 -115 -58 -115 -5 0 -33 -49 -63 -109
-31 -64 -61 -112 -71 -114 -11 -3 -18 0 -18 9 0 8 6 14 13 14 7 0 14 12 15 26
1 15 7 33 14 41 9 11 9 16 -2 23 -7 4 -19 6 -27 3 -20 -8 -15 11 7 24 10 7 27
10 37 7 14 -4 15 -4 4 4 -11 8 -11 10 0 15 10 4 10 6 2 6 -15 1 -17 28 -3 33
5 2 12 21 14 42 3 21 12 46 21 56 12 13 12 19 2 29 -9 11 -9 14 1 18 20 8 36
55 21 64 -9 5 -7 15 5 39 18 36 22 100 6 100 -15 0 -12 30 3 36 20 7 14 39
-16 85 -15 22 -27 47 -27 54 0 17 -31 27 -56 19 -13 -4 -15 -3 -6 3 7 5 15 20
17 34 3 13 12 30 21 36 16 12 16 13 0 19 -10 4 -15 13 -12 21 3 8 1 11 -4 8
-6 -3 -10 1 -10 9 0 8 -8 20 -17 25 -15 9 -14 10 10 11 15 0 27 4 27 10 0 13
-42 50 -51 45 -4 -3 -10 4 -14 15 -4 11 -11 17 -17 14 -6 -4 -8 1 -4 13 5 14
-3 31 -27 57 -39 43 -61 47 -55 11 6 -29 -21 -59 -45 -49 -18 7 -43 -31 -27
-41 12 -7 -2 -37 -31 -66 -17 -17 -24 -13 -20 14 0 4 -4 7 -10 7 -8 0 -8 4 0
13 8 10 7 17 -1 25 -7 7 -8 12 -4 12 5 0 4 6 -2 13 -6 7 -12 34 -13 59 -3 52
-19 56 -19 5 0 -18 -5 -39 -10 -47 -6 -10 -10 -11 -10 -2 0 6 -7 12 -15 12 -9
0 -15 9 -15 22 0 12 -3 18 -7 15 -3 -4 -16 -1 -27 6 -28 18 -66 27 -66 16 0
-15 -36 -10 -50 6 -7 8 -19 15 -27 15 -12 0 -13 3 -4 13 11 15 -5 75 -24 89
-19 14 -48 9 -41 -7 7 -21 -72 -21 -88 -1 -6 8 -28 18 -48 21 -32 6 -40 3 -61
-20 -49 -54 -57 -65 -47 -65 17 0 0 -26 -18 -26 -9 -1 -23 -3 -31 -5 -7 -2
-16 2 -18 9 -3 6 2 12 11 12 9 0 16 5 16 10 0 6 -4 10 -10 10 -5 0 -10 7 -10
15 0 8 -9 15 -20 15 -11 0 -20 3 -20 6 0 15 22 44 34 44 17 0 42 29 50 60 4
14 4 21 -1 15 -4 -5 -18 -15 -30 -22 -17 -10 -22 -9 -27 4 -4 10 -10 12 -19 5
-6 -5 -64 -12 -127 -16 -142 -8 -185 -25 -185 -73 0 -17 -3 -35 -8 -39 -4 -4
-7 -15 -7 -25 0 -10 -9 -23 -20 -29 -11 -6 -20 -17 -20 -25 0 -7 -5 -15 -10
-17 -6 -2 -12 -17 -14 -35 -3 -17 -9 -40 -15 -51 -15 -28 -14 -35 3 -29 10 4
13 1 10 -8 -3 -7 -15 -16 -27 -19 -16 -4 -19 -8 -10 -17 12 -12 -9 -63 -37
-86 -13 -11 -13 -15 4 -28 19 -15 19 -15 -2 -15 -22 0 -31 -15 -13 -22 6 -1
12 -29 15 -60 3 -46 1 -58 -10 -58 -8 0 -14 -4 -14 -10 0 -5 5 -10 10 -10 6 0
10 -5 10 -11 0 -6 -7 -9 -15 -5 -12 4 -15 -3 -15 -34 0 -41 -13 -54 -24 -22
-6 20 -28 54 -38 62 -4 3 -4 11 0 17 9 15 -9 143 -20 143 -4 0 -8 -4 -8 -10 0
-5 -4 -10 -10 -10 -5 0 -10 6 -10 13 0 6 -12 13 -26 13 -14 1 -36 12 -49 24
-13 12 -29 19 -35 15 -8 -5 -4 -11 11 -19 27 -13 37 -36 16 -36 -9 0 -18 6
-20 13 -4 7 -6 6 -6 -5 -1 -9 -7 -18 -13 -21 -21 -8 11 -33 71 -57 43 -17 56
-18 63 -8 6 9 7 6 3 -9 -3 -12 -1 -24 5 -28 8 -5 8 -11 -1 -21 -7 -9 -8 -14
-1 -14 6 0 8 -13 5 -31 -2 -17 2 -45 10 -62 8 -18 17 -39 21 -47 3 -8 4 -1 0
15 -5 28 -4 29 9 11 8 -11 12 -27 10 -36 -2 -9 3 -22 11 -29 22 -19 20 -31 -6
-32 l-23 0 23 -16 c20 -14 21 -17 6 -28 -20 -14 -11 -35 16 -35 26 0 35 -19
13 -27 -16 -6 -15 -8 7 -13 14 -3 25 -10 25 -15 0 -6 4 -16 8 -22 5 -7 6 -17
2 -22 -3 -5 -1 -12 5 -16 6 -4 8 -11 5 -16 -4 -5 3 -9 14 -9 12 0 21 -5 21
-11 0 -7 -10 -9 -25 -5 -14 4 -25 2 -25 -4 0 -5 20 -10 45 -10 44 0 45 -1 33
-22 -7 -13 -11 -29 -9 -37 1 -7 -2 -10 -8 -7 -5 4 -13 1 -17 -5 -5 -9 3 -10
30 -5 23 4 36 3 36 -4 0 -5 -4 -10 -10 -10 -5 0 -10 -7 -10 -17 0 -15 2 -15
19 1 18 17 21 17 45 1 30 -20 30 -19 14 -45 -10 -16 -10 -24 0 -40 17 -28 15
-40 -8 -40 -11 0 -20 -5 -20 -11 0 -7 12 -10 30 -7 19 3 31 0 35 -10 7 -19 7
-20 -11 -24 -13 -2 -11 -7 7 -27 20 -21 23 -22 34 -7 15 20 25 21 25 1 0 -7 7
-18 16 -23 11 -6 13 -16 9 -35 -4 -15 -11 -24 -17 -21 -5 3 -7 12 -4 20 5 14
-4 18 -37 14 -11 -1 -21 7 -24 19 -3 12 -13 21 -23 21 -10 0 -21 7 -24 16 -3
8 -14 14 -23 12 -19 -3 -26 -64 -10 -85 6 -8 6 -13 -1 -13 -6 0 -14 5 -17 10
-10 16 -35 12 -29 -5 10 -26 -18 -17 -91 30 -38 25 -72 45 -75 45 -3 0 -14 14
-25 30 -18 28 -23 30 -60 24 -22 -3 -44 -13 -48 -20 -4 -8 -17 -14 -28 -14
-25 0 -79 -27 -79 -40 0 -6 17 -10 38 -11 27 0 32 -2 18 -8 -20 -8 -30 -51
-12 -51 6 0 18 15 27 32 13 28 21 32 59 35 48 3 48 2 5 -22 l-30 -17 27 5 c18
3 25 0 22 -8 -4 -9 3 -11 22 -7 25 5 26 3 22 -27 -4 -28 -1 -32 26 -40 17 -4
36 -4 42 1 18 14 134 -6 134 -23 0 -5 7 -9 15 -9 8 0 15 -5 15 -11 0 -7 10 -9
25 -7 14 3 25 1 25 -3 0 -5 11 -9 24 -9 14 0 28 -5 32 -11 5 -8 -16 -9 -74 -4
-74 6 -81 5 -91 -13 -20 -38 -3 -77 44 -101 23 -12 48 -28 55 -36 14 -17 35
-21 25 -5 -4 6 8 10 29 10 20 0 36 -5 36 -11 0 -7 10 -9 24 -5 14 3 28 1 31
-4 4 -6 11 -7 17 -4 9 6 27 -12 28 -28 0 -12 -90 -5 -101 8 -7 8 -22 11 -40 7
-21 -4 -36 1 -58 20 -17 14 -46 30 -64 36 -19 7 -39 22 -45 36 -11 23 -13 24
-100 18 -84 -5 -92 -4 -155 26 -69 32 -101 67 -113 121 -3 14 -10 35 -16 47
-6 13 -8 26 -5 29 11 12 -47 105 -61 99 -8 -3 -27 -5 -43 -5 l-29 0 0 -289 c0
-222 3 -291 13 -294 9 -4 9 -8 1 -14 -7 -4 -11 -19 -10 -33 l1 -25 345 0 345
1 120 33 c119 33 275 51 275 31 0 -12 -11 -18 -42 -24 -35 -6 -68 -24 -68 -37
0 -14 70 -8 94 7 20 13 50 8 40 -7 -3 -5 2 -9 10 -9 9 0 16 5 16 10 0 7 6 7
19 0 13 -6 244 -10 680 -10 l661 0 0 125 c0 121 -1 126 -22 135 l-23 9 23 7
22 6 0 389 0 389 -36 -15 c-48 -20 -61 -19 -67 5 -3 11 -1 20 5 20 5 0 7 4 3
9 -3 5 -1 13 5 16 8 5 7 11 -1 21 -6 8 -8 14 -3 14 5 0 3 4 -5 9 -11 7 -9 11
8 20 25 14 27 29 6 45 -33 25 -19 166 16 166 6 0 9 9 6 20 -4 16 0 20 20 20
13 0 21 4 18 10 -3 6 -1 10 6 10 7 0 9 -10 7 -25 -3 -14 -1 -25 3 -25 5 0 9
44 8 98 0 55 -4 89 -8 78 -5 -14 -10 -16 -15 -8 -4 7 -19 10 -34 7 -23 -4 -24
-4 -7 4 17 8 18 10 3 10 -21 1 -24 21 -4 21 8 0 18 -4 21 -10 3 -5 11 -10 17
-10 5 0 0 9 -13 21 -23 19 -18 20 24 4 15 -6 17 0 17 49 0 42 -4 56 -14 56 -8
0 -16 6 -19 13 -3 7 -13 2 -27 -16 -17 -22 -25 -26 -31 -15 -5 7 -9 9 -9 4 0
-5 -9 -1 -20 9 -11 10 -20 25 -20 32 0 8 -10 23 -22 34 -13 10 -17 18 -10 19
6 0 12 5 12 11 0 5 -5 7 -11 3 -7 -4 -10 -1 -7 7 3 8 16 14 29 15 52 2 59 5
74 40 8 20 29 50 46 68 l31 31 -6 200 c-3 110 -6 233 -6 273 l0 72 -54 0 c-30
0 -58 -5 -61 -10 -4 -7 -13 -6 -26 1 -13 6 -25 7 -32 1 -21 -16 -70 -24 -77
-12 -9 15 -110 26 -110 11z m230 -31 c0 -5 -4 -10 -10 -10 -5 0 -10 5 -10 10
0 6 5 10 10 10 6 0 10 -4 10 -10z m-155 -27 c11 -15 16 -16 38 -4 30 16 54 7
36 -15 -21 -26 -119 1 -103 28 8 12 16 10 29 -9z m190 -27 c0 -5 -15 -10 -32
-11 -30 -2 -41 4 -28 16 8 9 60 4 60 -5z m-38 -72 c-3 -3 -12 -4 -19 -1 -8 3
-5 6 6 6 11 1 17 -2 13 -5z m-1667 -314 c-8 -5 -19 -10 -25 -10 -5 0 -3 5 5
10 8 5 20 10 25 10 6 0 3 -5 -5 -10z m1620 -97 c0 -2 -4 -3 -8 -3 -8 0 -32 58
-32 76 1 8 40 -64 40 -73z m-1370 -17 c0 -3 -4 -8 -10 -11 -5 -3 -10 -1 -10 4
0 6 5 11 10 11 6 0 10 -2 10 -4z m-16 -41 c11 -8 16 -21 13 -30 -4 -8 -7 -19
-8 -23 -3 -21 -21 -42 -31 -36 -5 4 -14 0 -19 -7 -8 -12 -10 -12 -18 1 -5 8
-7 18 -5 22 3 4 -1 8 -8 8 -7 0 -3 7 9 15 11 8 24 26 27 40 7 29 13 30 40 10z
m355 -39 c8 -9 1 -11 -26 -8 -26 3 -38 0 -45 -11 -5 -9 -27 -21 -48 -27 -31
-8 -40 -16 -40 -33 0 -22 -44 -67 -66 -67 -7 0 -15 -13 -19 -30 -4 -16 -10
-30 -14 -30 -4 0 -7 -18 -7 -40 1 -35 -13 -58 -26 -44 -3 2 1 33 7 69 18 95
81 180 98 133 2 -8 8 -9 13 -4 5 5 4 11 -3 13 -24 9 -13 33 17 40 17 3 29 11
27 17 -3 6 1 18 9 26 15 18 107 15 123 -4z m1051 10 c0 -3 -4 -8 -10 -11 -5
-3 -10 -1 -10 4 0 6 5 11 10 11 6 0 10 -2 10 -4z m-1090 -40 c0 -2 -7 -7 -16
-10 -8 -3 -12 -2 -9 4 6 10 25 14 25 6z m-456 -43 c-4 -16 -11 -33 -16 -40
-28 -36 -46 -86 -38 -106 4 -12 14 -49 21 -82 7 -33 18 -67 26 -76 7 -9 10
-19 6 -22 -3 -4 -1 -7 5 -7 7 0 12 -4 12 -9 0 -19 -36 1 -52 30 -9 16 -23 29
-30 29 -18 0 -17 180 2 235 20 59 77 102 64 48z m876 -93 c0 -11 -4 -20 -10
-20 -5 0 -10 9 -10 20 0 11 5 20 10 20 6 0 10 -9 10 -20z m-490 -36 c0 -8 -4
-12 -10 -9 -5 3 -10 10 -10 16 0 5 5 9 10 9 6 0 10 -7 10 -16z m1257 10 c-3
-3 -12 -4 -19 -1 -8 3 -5 6 6 6 11 1 17 -2 13 -5z m-767 -15 c0 -5 4 -8 9 -5
10 6 31 -17 50 -55 18 -37 9 -152 -17 -219 -32 -80 -136 -174 -157 -141 -7 12
41 91 55 91 6 0 10 7 10 16 0 9 6 30 14 47 29 64 47 239 26 252 -5 3 -10 10
-10 16 0 5 5 9 10 9 6 0 10 -5 10 -11z m-335 -71 c14 -6 25 -15 25 -20 0 -7
-31 8 -59 29 -10 7 10 2 34 -9z m-986 -9 c17 -6 31 -15 31 -19 0 -12 -45 -6
-47 5 -1 5 -10 12 -20 16 -29 12 1 10 36 -2z m801 -9 c0 -23 -25 -27 -33 -6
-7 16 1 26 20 26 7 0 13 -9 13 -20z m140 16 c0 -3 -4 -8 -10 -11 -5 -3 -10 -1
-10 4 0 6 5 11 10 11 6 0 10 -2 10 -4z m1188 -27 c-20 -13 -38 -11 -38 5 0 9
8 12 26 8 19 -3 22 -7 12 -13z m-2208 7 c0 -3 -4 -8 -10 -11 -5 -3 -10 -1 -10
4 0 6 5 11 10 11 6 0 10 -2 10 -4z m945 -45 c3 -10 14 -29 25 -41 11 -12 17
-27 14 -31 -3 -5 4 -13 16 -17 20 -7 20 -9 6 -21 -12 -10 -16 -10 -16 -2 0 8
-8 10 -22 5 -20 -6 -21 -5 -9 10 10 12 10 16 1 16 -7 0 -10 6 -7 14 3 8 -3 22
-13 31 -23 21 -33 55 -15 55 8 0 16 -8 20 -19z m294 -12 c-8 -5 -21 -8 -29 -8
-9 0 -11 2 -3 5 7 3 9 12 6 21 -5 13 -3 14 17 3 18 -10 20 -14 9 -21z m-869
-35 c0 -14 4 -23 10 -19 6 3 10 -1 10 -9 0 -9 8 -16 18 -17 10 0 12 -3 4 -6
-17 -7 -5 -23 19 -23 10 0 19 -6 19 -14 0 -7 7 -19 15 -26 8 -7 13 -16 10 -20
-3 -5 4 -15 16 -23 20 -14 20 -16 4 -58 -13 -35 -15 -38 -11 -13 8 53 -10 67
-100 72 -77 4 -80 5 -82 30 -1 14 -6 30 -11 35 -5 5 -7 16 -3 25 5 13 7 13 14
-4 6 -14 7 -11 3 9 -5 22 0 35 22 57 36 35 43 36 43 4z m348 -30 c2 -31 0 -30
-25 4 l-21 29 22 -4 c14 -3 22 -13 24 -29z m462 -15 c0 -10 5 -21 11 -24 6 -4
8 -13 5 -20 -2 -7 -1 -16 4 -21 19 -20 10 -134 -11 -134 -5 0 -5 -7 -2 -17 5
-11 3 -14 -6 -8 -8 4 -16 3 -20 -3 -5 -8 -20 -7 -51 2 -39 11 -46 18 -52 47
-3 18 -5 36 -3 40 3 3 -8 17 -23 30 -24 21 -37 23 -117 24 -69 1 -101 6 -137
22 -27 12 -48 26 -48 31 0 16 28 22 34 7 13 -34 136 -61 136 -31 0 8 5 18 11
22 8 4 9 0 4 -15 -6 -20 -3 -21 45 -21 44 0 52 3 62 25 9 20 14 22 30 14 16
-9 24 -6 40 10 10 12 23 19 29 16 5 -4 9 -1 9 4 0 6 8 11 18 12 10 0 12 3 4 6
-6 2 -9 9 -6 14 8 14 34 -10 34 -32z m305 -154 c-8 -30 -20 -55 -25 -55 -6 0
-10 -8 -10 -19 0 -10 -7 -24 -15 -31 -8 -7 -15 -19 -15 -26 0 -8 -4 -14 -10
-14 -5 0 -10 2 -10 4 0 2 -3 12 -7 22 -5 13 -3 15 7 9 10 -6 12 -4 7 9 -4 11
1 31 12 50 10 17 22 42 26 56 4 14 17 45 29 70 l20 45 4 -33 c2 -18 -4 -57
-13 -87z m-745 73 c0 -6 -7 -5 -15 2 -8 7 -15 17 -15 22 0 6 7 5 15 -2 8 -7
15 -17 15 -22z m-183 -85 c-17 -18 -22 -8 -11 22 5 12 10 13 17 6 8 -8 6 -16
-6 -28z m295 -6 c27 -26 223 -137 243 -137 8 0 15 -6 15 -12 0 -9 3 -8 10 2
10 17 15 14 24 -16 5 -16 0 -26 -20 -39 -25 -16 -26 -16 -20 2 5 16 1 18 -27
17 -17 -1 -40 -5 -49 -9 -12 -5 -20 -2 -24 9 -4 9 -18 16 -33 16 -15 0 -32 5
-38 11 -6 6 -22 17 -35 23 -16 8 -23 21 -24 40 -1 16 -7 34 -15 40 -18 14 -41
66 -29 66 4 0 15 -6 22 -13z m448 -62 c-7 -8 -17 -15 -22 -15 -11 0 14 29 26
30 5 0 3 -7 -4 -15z m-720 -11 c0 -8 -4 -12 -10 -9 -5 3 -10 10 -10 16 0 5 5
9 10 9 6 0 10 -7 10 -16z m-88 -41 c6 -13 21 -23 32 -24 18 -1 18 -2 -4 -9
-14 -4 -19 -8 -11 -9 10 -1 11 -4 2 -15 -13 -16 1 -32 19 -21 5 3 18 1 27 -4
15 -8 15 -11 3 -12 -8 -1 -18 -1 -22 0 -21 3 58 -115 88 -132 8 -4 14 -17 14
-27 0 -11 7 -20 16 -20 8 0 12 -5 9 -11 -4 -6 2 -13 14 -16 11 -3 23 -13 26
-23 3 -11 17 -20 33 -22 15 -2 26 -9 24 -16 -1 -6 1 -11 5 -10 18 5 73 -22 73
-36 0 -9 7 -16 15 -16 8 0 15 -5 15 -10 0 -6 10 -15 23 -20 l22 -9 -22 0 c-12
-1 -25 -5 -28 -11 -11 -17 -43 -11 -50 10 -3 11 -11 20 -16 20 -5 0 -28 12
-52 27 -23 15 -62 34 -87 43 -38 13 -177 112 -181 129 -1 3 -3 16 -4 28 -9 83
-18 130 -30 153 -12 24 -11 31 8 69 12 23 23 36 25 29 2 -7 8 -23 14 -35z
m708 -88 c7 -8 18 -15 26 -15 7 0 18 -8 23 -17 6 -10 11 -13 11 -8 1 6 5 1 9
-10 5 -12 3 -25 -6 -33 -12 -12 -17 -12 -32 2 -10 9 -26 16 -35 16 -12 0 -16
5 -13 15 4 8 1 17 -5 21 -7 4 -8 3 -4 -4 5 -8 -2 -12 -21 -12 -22 0 -25 2 -13
10 13 8 12 10 -2 10 -10 0 -18 3 -18 6 0 11 34 33 51 34 9 0 22 -7 29 -15z
m122 -80 c-2 -19 -8 -38 -13 -41 -10 -6 -12 36 -3 60 11 28 20 17 16 -19z
m814 -7 c-3 -18 -2 -49 2 -68 5 -19 5 -48 1 -65 -4 -16 -13 -57 -20 -90 -7
-33 -17 -64 -23 -70 -13 -11 -46 -78 -46 -93 0 -5 -13 -26 -29 -46 -29 -36
-185 -126 -219 -126 -35 0 -90 -23 -85 -36 5 -13 -9 -18 -79 -28 -23 -3 -38
-1 -38 6 0 5 -7 7 -16 4 -8 -3 -12 -2 -9 3 3 5 1 12 -5 16 -15 9 -12 25 5 25
8 0 24 9 36 21 11 11 28 19 37 17 17 -3 39 14 58 48 6 10 26 24 45 30 23 8 35
19 37 34 2 14 15 27 33 33 22 9 27 16 23 32 -4 15 12 37 62 88 36 37 72 67 79
67 19 0 67 60 61 76 -3 7 2 15 9 18 8 3 12 12 9 21 -3 8 -2 15 4 15 5 0 13 16
16 35 4 19 11 35 16 35 6 0 10 7 10 15 0 8 7 15 15 15 12 0 15 -8 11 -32z
m-801 -109 c-4 -5 1 -19 9 -31 9 -12 16 -33 16 -45 0 -15 9 -27 24 -34 26 -12
45 -52 20 -42 -8 3 -14 10 -14 15 0 9 -47 5 -92 -8 -29 -9 -20 10 13 29 30 17
31 18 15 42 -16 24 -22 76 -10 88 10 9 25 -3 19 -14z m-855 -77 c0 -13 -12
-22 -22 -16 -10 6 -1 24 13 24 5 0 9 -4 9 -8z m1123 -8 c-2 -7 0 -15 6 -18 5
-4 7 -21 4 -39 -7 -43 18 -67 49 -48 17 10 22 9 33 -6 16 -21 10 -35 -13 -32
-33 3 -42 -1 -43 -18 0 -14 -3 -13 -11 5 -12 25 -28 28 -46 10 -9 -9 -12 -8
-12 5 0 10 7 20 15 23 8 4 15 13 15 20 0 12 -16 14 -77 12 -73 -3 -78 -2 -90
22 -10 21 -9 27 7 42 11 10 34 18 52 19 18 1 44 4 58 9 35 10 59 8 53 -6z
m-1093 -58 c0 -8 -4 -18 -10 -21 -5 -3 -10 3 -10 14 0 12 5 21 10 21 6 0 10
-6 10 -14z m312 -91 c17 -3 33 -7 37 -11 3 -4 -6 -4 -21 0 -21 5 -28 3 -28 -9
0 -9 -9 -15 -22 -15 -17 0 -19 -3 -10 -12 9 -9 18 -9 37 0 32 15 55 15 55 2 0
-5 -7 -10 -15 -10 -8 0 -15 -4 -15 -10 0 -5 5 -10 10 -10 6 0 10 -4 10 -9 0
-6 -20 -9 -45 -7 -25 1 -45 -1 -45 -6 0 -4 -18 -17 -39 -28 -30 -15 -39 -25
-36 -39 2 -13 -1 -18 -10 -15 -7 3 -16 1 -19 -5 -4 -6 13 -13 39 -17 25 -3 52
-13 60 -20 7 -8 18 -14 24 -14 6 0 11 -5 11 -11 0 -5 5 -7 10 -4 6 4 8 11 5
16 -4 5 1 9 9 9 19 0 30 -17 14 -23 -19 -6 -4 -18 26 -21 15 -2 35 -11 45 -20
9 -9 26 -16 37 -16 12 0 15 -3 7 -8 -17 -11 1 -36 21 -29 9 4 16 14 16 23 0
25 25 10 28 -17 6 -36 21 -49 57 -49 25 0 33 -4 31 -16 -1 -9 -9 -20 -17 -24
-18 -10 -100 -7 -118 5 -10 5 -23 -2 -42 -26 -25 -30 -30 -33 -48 -21 -13 7
-21 8 -21 2 0 -5 -7 -10 -15 -10 -17 0 -19 18 -5 55 7 19 6 34 -5 55 -23 45
-129 150 -150 150 -11 0 -31 3 -45 5 -21 5 -22 4 -5 -3 19 -8 19 -9 -5 -23
-14 -7 -29 -14 -35 -14 -5 0 -9 -12 -7 -25 1 -14 -4 -30 -13 -36 -17 -13 -65
-7 -65 8 0 6 9 8 20 5 24 -6 25 -3 4 17 -14 15 -14 16 1 16 15 0 34 12 58 38
31 33 38 42 33 42 -3 0 -1 12 4 26 9 21 7 29 -7 40 -14 11 -15 13 -3 14 8 0
33 20 55 45 30 34 49 46 73 48 22 1 31 6 27 15 -3 7 0 10 5 7 6 -4 25 -8 42
-10z m-387 -5 c3 -5 -1 -10 -9 -10 -8 0 -18 5 -21 10 -3 6 1 10 9 10 8 0 18
-4 21 -10z m459 -16 c8 -21 8 -24 -3 -24 -5 0 -11 9 -14 20 -6 24 8 27 17 4z
m-684 -34 c0 -5 -4 -10 -10 -10 -5 0 -10 5 -10 10 0 6 5 10 10 10 6 0 10 -4
10 -10z m230 -26 c0 -2 -9 -4 -21 -4 -11 0 -18 4 -14 10 5 8 35 3 35 -6z m982
-69 c3 -14 1 -25 -3 -25 -5 0 -9 11 -9 25 0 14 2 25 4 25 2 0 6 -11 8 -25z
m-622 11 c0 -3 -4 -8 -10 -11 -5 -3 -10 -1 -10 4 0 6 5 11 10 11 6 0 10 -2 10
-4z m645 -56 c4 -6 16 -8 27 -4 18 5 19 4 7 -9 -13 -14 -16 -13 -34 1 -11 9
-22 18 -24 19 -2 2 1 3 7 3 6 0 14 -5 17 -10z m85 -64 c0 -6 5 -4 10 4 5 8 10
13 11 10 0 -3 2 -13 4 -23 3 -14 -1 -17 -13 -11 -9 3 -27 9 -39 11 -31 7 -29
21 2 21 14 0 25 -6 25 -12z m-1040 -6 c0 -5 -2 -10 -4 -10 -3 0 -8 5 -11 10
-3 6 -1 10 4 10 6 0 11 -4 11 -10z m1475 0 c-3 -5 -11 -10 -16 -10 -6 0 -7 5
-4 10 3 6 11 10 16 10 6 0 7 -4 4 -10z m123 -12 c5 -7 11 -22 12 -33 5 -43 1
-48 -30 -41 -17 3 -30 1 -30 -4 0 -15 -37 -12 -43 3 -4 9 -8 9 -14 1 -11 -16
-113 -6 -113 12 0 7 8 11 19 9 14 -3 18 1 14 16 -5 16 0 19 36 19 28 0 44 -5
47 -15 5 -11 10 -13 19 -5 6 5 14 7 17 5 3 -3 13 6 22 20 18 28 29 31 44 13z
m102 -28 c-24 -15 -37 -11 -16 5 11 8 22 12 25 9 3 -3 -1 -9 -9 -14z m-923
-32 c-14 -28 -42 -58 -53 -58 -5 0 -3 5 4 12 7 7 12 21 12 31 0 10 9 21 20 24
11 3 20 10 20 16 0 6 2 8 5 5 3 -3 0 -16 -8 -30z m543 -9 c0 -6 9 -9 20 -6 32
8 32 -9 0 -43 -28 -30 -34 -32 -75 -27 -31 5 -48 2 -57 -6 -6 -8 -22 -11 -35
-9 -13 2 -23 -1 -23 -7 0 -14 -78 -54 -90 -46 -6 4 -13 -1 -16 -9 -7 -19 -24
-20 -48 -3 -18 13 -18 15 3 62 11 26 21 54 21 61 0 8 5 14 10 14 6 0 10 -4 10
-10 0 -15 186 -10 207 6 10 7 26 14 36 14 9 0 17 5 17 10 0 6 5 10 10 10 6 0
10 -5 10 -11z"/>
<path d="M2311 249 c17 -11 39 -12 39 -1 0 4 -12 8 -27 9 -19 1 -22 -1 -12 -8z"/>
<path d="M2096 2431 c-3 -5 -16 -7 -29 -5 -12 2 -15 1 -7 -2 8 -4 18 -12 22
-18 5 -8 8 -7 8 2 0 6 7 12 15 12 8 0 15 5 15 10 0 12 -17 13 -24 1z"/>
<path d="M2008 2403 c7 -3 16 -2 19 1 4 3 -2 6 -13 5 -11 0 -14 -3 -6 -6z"/>
<path d="M2110 2400 c0 -5 4 -10 9 -10 6 0 13 5 16 10 3 6 -1 10 -9 10 -9 0
-16 -4 -16 -10z"/>
<path d="M2000 2370 c0 -5 4 -10 9 -10 6 0 13 5 16 10 3 6 -1 10 -9 10 -9 0
-16 -4 -16 -10z"/>
<path d="M1240 2280 c0 -32 21 -67 49 -81 14 -8 29 -19 34 -26 4 -6 21 -11 37
-11 26 1 28 3 13 13 -10 7 -23 11 -30 8 -7 -3 -13 0 -13 6 0 7 -9 21 -20 33
-11 12 -19 27 -18 32 3 22 -15 46 -33 46 -12 0 -19 -7 -19 -20z"/>
<path d="M2070 2269 c0 -5 5 -7 10 -4 6 3 10 8 10 11 0 2 -4 4 -10 4 -5 0 -10
-5 -10 -11z"/>
<path d="M2051 2210 c-20 -17 -21 -21 -6 -26 9 -4 22 -1 28 5 9 9 7 11 -8 5
-20 -7 -20 -7 -1 14 24 27 19 28 -13 2z"/>
<path d="M1467 2169 c-9 -6 -15 -14 -12 -18 11 -18 -24 -31 -71 -27 -26 2 -42
1 -35 -3 7 -5 14 -17 15 -27 2 -14 10 -18 27 -16 22 3 22 2 -5 -13 -20 -11
-33 -12 -40 -5 -13 13 -66 13 -66 0 0 -5 9 -10 20 -10 11 0 20 -4 20 -10 0 -5
8 -10 19 -10 10 0 24 -7 31 -15 7 -9 21 -13 34 -9 14 3 32 -3 48 -15 14 -12
30 -21 36 -21 5 0 19 -9 32 -20 17 -15 26 -17 31 -9 4 7 14 9 23 6 9 -4 28 -2
42 3 22 9 24 13 13 26 -10 13 -9 16 9 21 21 5 32 33 14 33 -5 0 -14 16 -22 35
-7 19 -20 37 -29 40 -12 5 -13 8 -2 14 9 6 10 11 2 15 -6 4 -14 0 -17 -8 -3
-9 -10 -16 -16 -16 -13 0 -38 26 -38 40 0 6 -5 8 -10 5 -6 -3 -13 1 -16 9 -7
18 -12 19 -37 5z m23 -29 c0 -5 -4 -10 -10 -10 -5 0 -10 5 -10 10 0 6 5 10 10
10 6 0 10 -4 10 -10z m110 -170 c0 -5 -7 -7 -15 -4 -8 4 -15 8 -15 10 0 2 7 4
15 4 8 0 15 -4 15 -10z"/>
<path d="M990 2105 c-16 -19 -10 -19 26 0 25 13 26 15 8 15 -12 0 -27 -7 -34
-15z"/>
<path d="M987 1999 c7 -7 15 -10 18 -7 3 3 -2 9 -12 12 -14 6 -15 5 -6 -5z"/>
<path d="M1668 1979 c-12 -13 -14 -19 -5 -19 22 0 43 18 32 28 -6 5 -17 2 -27
-9z"/>
<path d="M1570 1920 c0 -5 5 -10 10 -10 6 0 10 5 10 10 0 6 -4 10 -10 10 -5 0
-10 -4 -10 -10z"/>
<path d="M2468 1763 c5 -21 7 -23 10 -9 2 10 0 22 -6 28 -6 6 -7 0 -4 -19z"/>
<path d="M2385 1710 c-3 -5 -1 -10 4 -10 6 0 11 5 11 10 0 6 -2 10 -4 10 -3 0
-8 -4 -11 -10z"/>
<path d="M328 1325 c20 -41 27 -43 28 -11 1 16 -6 27 -22 35 l-23 10 17 -34z"/>
<path d="M400 1220 c0 -5 5 -10 11 -10 5 0 7 5 4 10 -3 6 -8 10 -11 10 -2 0
-4 -4 -4 -10z"/>
<path d="M340 1201 c0 -9 52 -22 59 -15 6 6 -1 11 -31 18 -16 3 -28 2 -28 -3z"/>
<path d="M335 1170 c-3 -5 1 -10 9 -10 9 0 16 5 16 10 0 6 -4 10 -9 10 -6 0
-13 -4 -16 -10z"/>
<path d="M185 1020 c-3 -5 1 -10 9 -10 9 0 16 5 16 10 0 6 -4 10 -9 10 -6 0
-13 -4 -16 -10z"/>
<path d="M236 1003 c-6 -14 -5 -15 5 -6 7 7 10 15 7 18 -3 3 -9 -2 -12 -12z"/>
<path d="M265 989 c-4 -11 -13 -18 -20 -15 -8 3 -11 -2 -8 -13 4 -16 8 -17 29
-7 13 6 24 19 24 28 0 26 -18 31 -25 7z"/>
<path d="M198 983 c7 -3 16 -2 19 1 4 3 -2 6 -13 5 -11 0 -14 -3 -6 -6z"/>
<path d="M208 943 c7 -3 16 -2 19 1 4 3 -2 6 -13 5 -11 0 -14 -3 -6 -6z"/>
<path d="M480 920 c0 -5 5 -10 10 -10 6 0 10 5 10 10 0 6 -4 10 -10 10 -5 0
-10 -4 -10 -10z"/>
<path d="M250 878 c0 -9 5 -20 10 -23 13 -8 13 5 0 25 -8 13 -10 13 -10 -2z"/>
<path d="M142 780 c0 -14 2 -19 5 -12 2 6 2 18 0 25 -3 6 -5 1 -5 -13z"/>
<path d="M504 741 c4 -5 2 -12 -4 -16 -6 -4 -7 -11 -3 -18 3 -6 7 -29 8 -50 2
-42 32 -76 67 -77 15 0 17 8 15 55 -1 36 -6 55 -14 55 -7 0 -13 7 -13 15 0 8
7 15 15 15 8 0 15 4 15 9 0 18 -21 23 -36 10 -13 -10 -20 -10 -36 0 -11 7 -17
8 -14 2z"/>
<path d="M620 670 c0 -5 12 -10 28 -9 24 0 25 1 7 9 -27 12 -35 12 -35 0z"/>
<path d="M300 522 c0 -5 7 -13 16 -16 10 -4 14 -1 12 6 -5 15 -28 23 -28 10z"/>
<path d="M813 23 c-71 -7 -49 -23 30 -23 65 1 70 2 53 15 -11 8 -25 14 -30 13
-6 -1 -30 -3 -53 -5z"/>
</g>
</svg>
